<svg width="35" height="35" viewBox="0 0 35 35" fill="none" xmlns="http://www.w3.org/2000/svg">
<path d="M9.35402 13.125H25.6465C25.9349 13.1251 26.2168 13.2106 26.4566 13.3709C26.6963 13.5311 26.8832 13.7589 26.9935 14.0253C27.1039 14.2917 27.1328 14.5849 27.0765 14.8678C27.0203 15.1506 26.8814 15.4104 26.6776 15.6144L18.5313 23.7606C18.2578 24.034 17.887 24.1876 17.5003 24.1876C17.1136 24.1876 16.7427 24.034 16.4692 23.7606L8.32298 15.6144C8.11909 15.4104 7.98025 15.1506 7.924 14.8678C7.86776 14.5849 7.89664 14.2917 8.00699 14.0253C8.11734 13.7589 8.30421 13.5311 8.54398 13.3709C8.78374 13.2106 9.06563 13.1251 9.35402 13.125Z" fill="#935A24"/>
</svg>
