<svg width="35" height="35" viewBox="0 0 35 35" fill="none" xmlns="http://www.w3.org/2000/svg">
<g clip-path="url(#clip0_46_996)">
<path d="M17.5 0C14.0388 0 10.6554 1.02636 7.77753 2.94928C4.89967 4.87221 2.65665 7.60533 1.33212 10.803C0.00758251 14.0007 -0.338976 17.5194 0.336265 20.9141C1.01151 24.3087 2.67822 27.427 5.12564 29.8744C7.57306 32.3218 10.6913 33.9885 14.0859 34.6637C17.4806 35.339 20.9993 34.9924 24.197 33.6679C27.3947 32.3434 30.1278 30.1003 32.0507 27.2225C33.9736 24.3446 35 20.9612 35 17.5C34.995 12.8603 33.1496 8.41197 29.8688 5.13117C26.588 1.85037 22.1398 0.00501824 17.5 0V0ZM17.5 30.625C14.9041 30.625 12.3665 29.8552 10.2081 28.413C8.04975 26.9708 6.36749 24.921 5.37409 22.5227C4.38069 20.1244 4.12077 17.4854 4.6272 14.9394C5.13363 12.3934 6.38367 10.0548 8.21923 8.21922C10.0548 6.38366 12.3934 5.13362 14.9394 4.62719C17.4854 4.12076 20.1244 4.38068 22.5227 5.37408C24.921 6.36748 26.9709 8.04975 28.413 10.2081C29.8552 12.3665 30.625 14.9041 30.625 17.5C30.6208 20.9797 29.2366 24.3156 26.7761 26.7761C24.3156 29.2366 20.9797 30.6208 17.5 30.625Z" fill="#DFBE76"/>
<path d="M16.8367 13.9201H16.3992C15.8261 13.9061 15.2683 14.1066 14.8353 14.4824C14.4023 14.8582 14.1253 15.3821 14.0586 15.9516C14.0205 16.5212 14.2065 17.0833 14.5771 17.5176C14.9477 17.9519 15.4734 18.2242 16.0419 18.2762V25.0574C16.0419 25.6376 16.2724 26.194 16.6827 26.6042C17.0929 27.0145 17.6493 27.2449 18.2295 27.2449C18.8096 27.2449 19.366 27.0145 19.7763 26.6042C20.1865 26.194 20.417 25.6376 20.417 25.0574V17.5003C20.417 16.5508 20.0398 15.6402 19.3683 14.9687C18.6969 14.2973 17.7863 13.9201 16.8367 13.9201Z" fill="#DFBE76"/>
<path d="M17.2525 12.3468C17.7475 12.3468 18.2313 12.2 18.6428 11.9251C19.0544 11.6501 19.3751 11.2592 19.5645 10.802C19.7539 10.3447 19.8035 9.84152 19.7069 9.35608C19.6104 8.87065 19.372 8.42474 19.0221 8.07476C18.6721 7.72478 18.2262 7.48644 17.7407 7.38988C17.2553 7.29332 16.7521 7.34288 16.2948 7.53229C15.8376 7.7217 15.4467 8.04245 15.1717 8.45398C14.8968 8.86552 14.75 9.34935 14.75 9.8443C14.7498 10.173 14.8144 10.4985 14.9401 10.8022C15.0658 11.1059 15.2501 11.3818 15.4825 11.6143C15.715 11.8467 15.9909 12.031 16.2946 12.1567C16.5983 12.2824 16.9238 12.347 17.2525 12.3468Z" fill="#DFBE76"/>
</g>
<defs>
<clipPath id="clip0_46_996">
<rect width="35" height="35" fill="white"/>
</clipPath>
</defs>
</svg>
