<svg width="35" height="35" viewBox="0 0 35 35" fill="none" xmlns="http://www.w3.org/2000/svg">
<path d="M29.8958 8.75H26.25C26.25 6.42936 25.3281 4.20376 23.6872 2.56282C22.0462 0.921872 19.8206 0 17.5 0C15.1794 0 12.9538 0.921872 11.3128 2.56282C9.67187 4.20376 8.75 6.42936 8.75 8.75H5.10417C3.75551 8.76627 2.46668 9.30925 1.51297 10.263C0.559254 11.2167 0.0162711 12.5055 0 13.8542L0 26.9792C0.0186523 29.1007 0.869691 31.13 2.36986 32.6301C3.87004 34.1303 5.89935 34.9813 8.02083 35H16.7708C17.351 35 17.9074 34.7695 18.3176 34.3593C18.7279 33.9491 18.9583 33.3927 18.9583 32.8125C18.9583 32.2323 18.7279 31.6759 18.3176 31.2657C17.9074 30.8555 17.351 30.625 16.7708 30.625H8.02083C7.54076 30.6297 7.06457 30.5386 6.62012 30.357C6.17567 30.1754 5.7719 29.9071 5.43242 29.5676C5.09294 29.2281 4.82456 28.8243 4.643 28.3799C4.46143 27.9354 4.37032 27.4592 4.375 26.9792V13.8542C4.36903 13.7569 4.38381 13.6594 4.41834 13.5682C4.45287 13.4771 4.50638 13.3943 4.57532 13.3253C4.64426 13.2564 4.72705 13.2029 4.81822 13.1683C4.90939 13.1338 5.00686 13.119 5.10417 13.125H8.75V15.3125C8.76406 15.8882 8.99904 16.4365 9.40627 16.8437C9.8135 17.251 10.3618 17.4859 10.9375 17.5C11.5132 17.4859 12.0615 17.251 12.4687 16.8437C12.876 16.4365 13.1109 15.8882 13.125 15.3125V13.125H21.875V15.3125C21.875 15.8927 22.1055 16.4491 22.5157 16.8593C22.9259 17.2695 23.4823 17.5 24.0625 17.5C24.6427 17.5 25.1991 17.2695 25.6093 16.8593C26.0195 16.4491 26.25 15.8927 26.25 15.3125V13.125H29.8958C29.9931 13.119 30.0906 13.1338 30.1818 13.1683C30.273 13.2029 30.3557 13.2564 30.4247 13.3253C30.4936 13.3943 30.5471 13.4771 30.5817 13.5682C30.6162 13.6594 30.631 13.7569 30.625 13.8542V21.1458C30.625 21.726 30.8555 22.2824 31.2657 22.6926C31.6759 23.1029 32.2323 23.3333 32.8125 23.3333C33.3927 23.3333 33.9491 23.1029 34.3593 22.6926C34.7695 22.2824 35 21.726 35 21.1458V13.8542C34.9837 12.5055 34.4407 11.2167 33.487 10.263C32.5333 9.30925 31.2445 8.76627 29.8958 8.75ZM13.125 8.75C13.125 7.58968 13.5859 6.47688 14.4064 5.65641C15.2269 4.83594 16.3397 4.375 17.5 4.375C18.6603 4.375 19.7731 4.83594 20.5936 5.65641C21.4141 6.47688 21.875 7.58968 21.875 8.75H13.125Z" fill="#DFBE76"/>
<path d="M33.3594 30.625H23.5156C23.0805 30.625 22.6632 30.3945 22.3555 29.9843C22.0479 29.5741 21.875 29.0177 21.875 28.4375C21.875 27.8573 22.0479 27.3009 22.3555 26.8907C22.6632 26.4805 23.0805 26.25 23.5156 26.25H33.3594C33.7945 26.25 34.2118 26.4805 34.5195 26.8907C34.8271 27.3009 35 27.8573 35 28.4375C35 29.0177 34.8271 29.5741 34.5195 29.9843C34.2118 30.3945 33.7945 30.625 33.3594 30.625Z" fill="#DFBE76"/>
</svg>
