<svg width="30" height="30" viewBox="0 0 30 30" fill="none" xmlns="http://www.w3.org/2000/svg">
<g clip-path="url(#clip0_4_65)">
<path d="M10.0016 26.25H4.26282C3.98075 26.2493 3.75223 26.0208 3.75159 25.7388V4.26123C3.75229 3.97916 3.98075 3.75064 4.26282 3.75H10.0015C11.0371 3.75 11.8765 2.91053 11.8765 1.875C11.8765 0.839473 11.0371 0 10.0015 0H4.26282C1.91057 0.00275391 0.00434082 1.90898 0.00158691 4.26123V25.7387C0.00434082 28.091 1.91057 29.9972 4.26282 30H10.0015C11.0371 30 11.8765 29.1605 11.8765 28.125C11.8765 27.0895 11.0371 26.25 10.0016 26.25Z" fill="#DFBE76"/>
<path d="M28.1268 13.1261L11.0768 13.1598L15.4093 8.82733C16.1418 8.0952 16.1421 6.90792 15.4099 6.17544C14.6778 5.44296 13.4905 5.44266 12.758 6.17479L7.90928 11.0235C5.71254 13.2202 5.71254 16.7818 7.90922 18.9785L7.90928 18.9785L12.758 23.8273C13.4905 24.5594 14.6778 24.5591 15.4099 23.8266C16.1421 23.0941 16.1418 21.9069 15.4093 21.1747L11.143 16.9098L28.1268 16.8761C29.1623 16.874 30.0001 16.0328 29.9981 14.9973C29.996 13.9618 29.1548 13.124 28.1193 13.1261H28.1268Z" fill="#DFBE76"/>
</g>
<defs>
<clipPath id="clip0_4_65">
<rect width="30" height="30" fill="white"/>
</clipPath>
</defs>
</svg>
