<svg width="30" height="30" viewBox="0 0 30 30" fill="none" xmlns="http://www.w3.org/2000/svg">
<g clip-path="url(#clip0_14_222)">
<path d="M10 26.25H4.26125C4.12576 26.2497 3.99591 26.1957 3.90011 26.0999C3.8043 26.0041 3.75033 25.8742 3.75 25.7388V4.26125C3.75033 4.12576 3.8043 3.99591 3.90011 3.90011C3.99591 3.8043 4.12576 3.75033 4.26125 3.75H10C10.4973 3.75 10.9742 3.55246 11.3258 3.20083C11.6775 2.84919 11.875 2.37228 11.875 1.875C11.875 1.37772 11.6775 0.900805 11.3258 0.549175C10.9742 0.197544 10.4973 0 10 0L4.26125 0C3.1315 0.00132328 2.04841 0.4507 1.24955 1.24955C0.4507 2.04841 0.00132328 3.1315 0 4.26125L0 25.7388C0.00132328 26.8685 0.4507 27.9516 1.24955 28.7504C2.04841 29.5493 3.1315 29.9987 4.26125 30H10C10.4973 30 10.9742 29.8025 11.3258 29.4508C11.6775 29.0992 11.875 28.6223 11.875 28.125C11.875 27.6277 11.6775 27.1508 11.3258 26.7992C10.9742 26.4475 10.4973 26.25 10 26.25Z" fill="#DFBE76"/>
<path d="M28.3527 11.0217L23.5002 6.17293C23.326 5.99885 23.1193 5.86077 22.8917 5.76659C22.6642 5.67241 22.4204 5.62397 22.1741 5.62402C21.9279 5.62408 21.684 5.67264 21.4566 5.76693C21.2291 5.86122 21.0224 5.99939 20.8483 6.17356C20.6742 6.34772 20.5361 6.55447 20.442 6.782C20.3478 7.00953 20.2993 7.25337 20.2994 7.49962C20.2995 7.99695 20.4972 8.47385 20.8489 8.82543L25.1139 13.0892L8.12518 13.1242C7.6279 13.1242 7.15099 13.3217 6.79936 13.6734C6.44773 14.025 6.25018 14.5019 6.25018 14.9992C6.25018 15.4965 6.44773 15.9734 6.79936 16.325C7.15099 16.6766 7.6279 16.8742 8.12518 16.8742L25.1827 16.8429L20.8489 21.1767C20.5179 21.5323 20.3378 22.0025 20.3466 22.4882C20.3554 22.974 20.5524 23.4373 20.8961 23.7807C21.2398 24.1241 21.7034 24.3207 22.1891 24.329C22.6749 24.3373 23.1449 24.1568 23.5002 23.8254L28.3489 18.9767C28.8713 18.4544 29.2856 17.8343 29.5683 17.1518C29.851 16.4693 29.9965 15.7379 29.9965 14.9992C29.9965 14.2605 29.851 13.529 29.5683 12.8466C29.2856 12.1641 28.8713 11.544 28.3489 11.0217H28.3527Z" fill="#DFBE76"/>
</g>
<defs>
<clipPath id="clip0_14_222">
<rect width="30" height="30" fill="white"/>
</clipPath>
</defs>
</svg>
